<svg width="1080" height="1080" viewBox="0 0 1080 1080" fill="none" xmlns="http://www.w3.org/2000/svg">
<rect width="1080" height="1080" fill="white"/>
<path d="M321.527 728V352.033H367.055V519.456H567.521V352.033H613.049V728H567.521V559.843H367.055V728H321.527ZM755.597 352.033L751.925 622.259H709.335L705.664 352.033H755.597ZM730.63 730.937C721.574 730.937 713.802 727.694 707.316 721.208C700.829 714.721 697.586 706.95 697.586 697.893C697.586 688.837 700.829 681.065 707.316 674.579C713.802 668.092 721.574 664.849 730.63 664.849C739.687 664.849 747.458 668.092 753.945 674.579C760.431 681.065 763.674 688.837 763.674 697.893C763.674 703.89 762.144 709.397 759.085 714.415C756.147 719.433 752.17 723.472 747.152 726.531C742.257 729.469 736.749 730.937 730.63 730.937Z" fill="black"/>
</svg>
