<svg width="1080" height="1080" viewBox="0 0 1080 1080" fill="none" xmlns="http://www.w3.org/2000/svg">
<rect width="1080" height="1080" fill="white"/>
<path d="M270.818 728L168.015 352.033H214.276L292.848 658.24H296.519L376.559 352.033H427.961L508.001 658.24H511.672L590.243 352.033H636.505L533.701 728H486.706L403.728 428.401H400.791L317.814 728H270.818ZM779.328 733.874C752.159 733.874 728.722 727.878 709.018 715.884C689.437 703.768 674.322 686.879 663.674 665.216C653.149 643.432 647.887 618.098 647.887 589.215C647.887 560.332 653.149 534.876 663.674 512.847C674.322 490.695 689.131 473.439 708.1 461.078C727.192 448.595 749.466 442.353 774.923 442.353C789.609 442.353 804.111 444.801 818.43 449.696C832.75 454.592 845.784 462.547 857.533 473.561C869.282 484.454 878.644 498.895 885.62 516.886C892.596 534.876 896.084 557.028 896.084 583.341V601.699H678.728V564.249H852.025C852.025 548.339 848.843 534.142 842.479 521.659C836.238 509.175 827.303 499.323 815.677 492.103C804.173 484.882 790.588 481.272 774.923 481.272C757.666 481.272 742.735 485.555 730.13 494.122C717.646 502.567 708.039 513.581 701.308 527.166C694.577 540.751 691.211 555.315 691.211 570.857V595.824C691.211 617.119 694.883 635.171 702.226 649.979C709.691 664.666 720.033 675.864 733.25 683.574C746.468 691.162 761.827 694.956 779.328 694.956C790.71 694.956 800.991 693.365 810.169 690.183C819.471 686.879 827.487 681.983 834.218 675.497C840.949 668.888 846.151 660.688 849.822 650.897L891.678 662.646C887.272 676.843 879.868 689.326 869.465 700.096C859.062 710.744 846.212 719.066 830.914 725.063C815.616 730.937 798.421 733.874 779.328 733.874Z" fill="black"/>
</svg>
